<?xml version="1.0" encoding="utf-8"?>
<!-- Generator: Adobe Illustrator 27.7.0, SVG Export Plug-In . SVG Version: 6.00 Build 0)  -->
<svg version="1.1" id="Layer_1" xmlns="http://www.w3.org/2000/svg" xmlns:xlink="http://www.w3.org/1999/xlink" x="0px" y="0px"
	 viewBox="0 0 512 512" style="enable-background:new 0 0 512 512;" xml:space="preserve">
<style type="text/css">
	.st0{fill:#F26522;}
	.st1{fill:#FFFFFF;}
</style>
<rect x="0" y="0.5" class="st0" width="512" height="512"/>
<g id="_x23_020201ff">
	<path class="st1" d="M299.6,123.6c13.8-13.1,33.3-17.5,51.8-18.1c19.5-0.2,39.1-0.1,58.6-0.1c0.1,20.6,0.1,41.2,0,61.8
		c-12.6,0-25.3,0-37.9,0c-8-0.5-16.2,5.6-17.7,13.5c-0.2,13.8-0.1,27.6-0.1,41.4c18.5,0.1,37,0,55.6,0c-1.4,20-3.8,39.8-6.7,59.6
		c-16.4,0.2-32.7,0-49.1,0.1c-0.1,58.8,0.1,117.7-0.1,176.5c-24.3,0.1-48.6,0-72.9,0.1c-0.5-58.8,0-117.7-0.3-176.6
		c-11.9-0.1-23.7,0.1-35.6-0.1c0-19.8,0-39.6,0-59.3c11.8-0.1,23.7,0,35.5-0.1c0.4-19.2-0.4-38.5,0.4-57.7
		C282.4,149.4,288.2,134.1,299.6,123.6z"/>
</g>
</svg>
