<?xml version="1.0" encoding="utf-8"?>
<!-- Generator: Adobe Illustrator 27.7.0, SVG Export Plug-In . SVG Version: 6.00 Build 0)  -->
<svg version="1.1" id="Layer_1" xmlns="http://www.w3.org/2000/svg" xmlns:xlink="http://www.w3.org/1999/xlink" x="0px" y="0px"
	 viewBox="0 0 512 512" style="enable-background:new 0 0 512 512;" xml:space="preserve">
<style type="text/css">
	.st0{fill:#F26522;}
	.st1{fill:#FFFFFF;}
</style>
<g id="Layer_2_00000041286102134795166110000008930658030740022195_">
	<rect y="0.5" class="st0" width="512" height="512"/>
</g>
<g id="Layer_1_00000067194602277758037030000005449045743884249254_">
	<path class="st1" d="M103,213.2l67.2-0.8v220.1l-67.2,0.8V213.2L103,213.2z"/>
	<path class="st1" d="M226.5,213.2l64.3-0.8v28v7.9c19-18.6,38.6-32.8,69.9-32.8c36.9,0,72.7,15.5,72.7,65.9v151l-65.2,1V318.2
		c0-25.4-6.3-41.9-36.8-41.9c-26.7,0-37.9,4.8-37.9,40v116.2l-67,0.8V213.2L226.5,213.2z"/>
	<path class="st1" d="M174.1,143.8c0,20.3-16.5,36.8-36.8,36.8s-36.8-16.5-36.8-36.8s16.5-36.8,36.8-36.8
		C157.7,107,174.1,123.5,174.1,143.8L174.1,143.8z"/>
</g>
</svg>
