<?xml version="1.0" encoding="utf-8"?>
<!-- Generator: Adobe Illustrator 27.7.0, SVG Export Plug-In . SVG Version: 6.00 Build 0)  -->
<svg version="1.1" id="Layer_1" xmlns="http://www.w3.org/2000/svg" xmlns:xlink="http://www.w3.org/1999/xlink" x="0px" y="0px"
	 viewBox="0 0 101.1 17.7" style="enable-background:new 0 0 101.1 17.7;" xml:space="preserve">
<style type="text/css">
	.st0{fill:#003E59;}
	.st1{fill:#F5F5F5;}
	.st2{fill:#FFF200;}
</style>
<g>
	<rect class="st0" width="101.1" height="17.7"/>
	<path class="st1" d="M10.4,15.2c-0.5,0-0.9,0-1.3,0c-0.4,0-0.8-0.1-1.1-0.1C7.6,15,7.3,14.9,7,14.8c-0.3-0.1-0.5-0.3-0.8-0.5
		c-0.4-0.4-0.7-0.9-0.9-1.4c-0.2-0.6-0.2-1.3-0.2-2.2V7.3c0-1,0.1-1.8,0.2-2.4c0.2-0.6,0.5-1.1,0.9-1.5c0.4-0.4,1-0.6,1.7-0.7
		c0.7-0.1,1.5-0.2,2.5-0.2h3.8c1,0,1.8,0.1,2.5,0.2c0.7,0.1,1.2,0.3,1.7,0.7c0.4,0.4,0.7,0.8,0.9,1.5c0.2,0.6,0.3,1.4,0.3,2.3v3.5
		c0,0.9-0.1,1.7-0.3,2.3c-0.2,0.6-0.5,1.1-0.9,1.5c-0.4,0.4-1,0.6-1.7,0.7c-0.7,0.1-1.5,0.1-2.5,0.1H10.4z M13.3,12.1
		c0.5,0,1,0,1.3-0.1c0.4-0.1,0.7-0.2,0.9-0.3c0.2-0.2,0.4-0.4,0.5-0.7c0.1-0.3,0.2-0.7,0.2-1.2V8c0-0.5-0.1-0.9-0.2-1.2
		c-0.1-0.3-0.3-0.6-0.5-0.7c-0.2-0.2-0.5-0.3-0.9-0.3c-0.4-0.1-0.8-0.1-1.3-0.1h-2.1c-0.5,0-1,0-1.3,0.1C9.5,5.7,9.2,5.9,9,6
		C8.8,6.2,8.6,6.5,8.5,6.8C8.4,7.1,8.4,7.5,8.4,8v1.7c0,0.5,0.1,0.9,0.2,1.2c0.1,0.3,0.3,0.5,0.5,0.7c0.2,0.2,0.5,0.3,0.9,0.3
		c0.4,0.1,0.8,0.1,1.3,0.1H13.3z"/>
	<path class="st1" d="M21.4,15.2V2.5h4.8l3.8,7.9l3.9-7.9h4.7v12.6h-3.2v-9l-4.4,9H29l-4.4-9v9H21.4z"/>
	<polygon class="st1" points="52.5,2.5 40.3,2.5 40.3,5.6 44.8,5.6 44.8,15.2 48.1,15.2 48.1,5.6 52.5,5.6 	"/>
	<path class="st2" d="M57.2,10.1V7.6h2.3v2.5H57.2z"/>
	<g>
		<polygon class="st1" points="57.2,10.1 53.9,10.1 53.9,12.1 53.9,14.6 53.9,15.2 65.7,15.2 65.7,12.1 57.2,12.1 		"/>
		<polygon class="st1" points="53.9,2.5 53.9,2.8 53.9,2.8 53.9,7.6 57.2,7.6 57.2,5.6 65.7,5.6 65.7,2.5 		"/>
	</g>
	<polygon class="st1" points="92.8,2.5 92.8,7.6 86.1,7.6 86.1,2.5 82.8,2.5 82.8,15.2 86.1,15.2 86.1,10.1 92.8,10.1 92.8,15.2 
		96,15.2 96,2.5 	"/>
	<path class="st1" d="M78.2,10.1c0,0.3-0.1,0.6-0.1,0.8c-0.1,0.3-0.3,0.6-0.5,0.7c-0.2,0.2-0.5,0.3-0.9,0.3
		c-0.4,0.1-0.8,0.1-1.3,0.1h-2.1c-0.5,0-1,0-1.3-0.1c-0.4-0.1-0.7-0.2-0.9-0.3c-0.2-0.2-0.4-0.4-0.5-0.7c-0.1-0.3-0.2-0.7-0.2-1.2V8
		c0-0.5,0-0.9,0.1-1.3c0.1-0.3,0.3-0.6,0.5-0.7c0.2-0.2,0.5-0.3,0.9-0.3c0.4-0.1,0.8-0.1,1.3-0.1h2.1c0.5,0,1,0,1.3,0.1
		c0.4,0.1,0.7,0.2,0.9,0.3c0.2,0.2,0.4,0.4,0.5,0.7c0.1,0.2,0.1,0.5,0.1,0.8h3.3V7.1c0-0.9-0.1-1.7-0.3-2.3
		c-0.2-0.6-0.5-1.1-0.9-1.5c-0.4-0.4-1-0.6-1.7-0.7c-0.7-0.1-1.5-0.2-2.5-0.2h-3.8c-1,0-1.8,0.1-2.5,0.2c-0.7,0.1-1.2,0.3-1.7,0.7
		c-0.4,0.4-0.7,0.9-0.9,1.5c-0.2,0.6-0.2,1.4-0.2,2.4v3.4c0,0.9,0.1,1.6,0.2,2.2c0.2,0.6,0.5,1.1,0.9,1.4c0.2,0.2,0.5,0.3,0.8,0.5
		c0.3,0.1,0.6,0.2,0.9,0.3c0.3,0.1,0.7,0.1,1.1,0.1c0.4,0,0.8,0,1.3,0h3.8c1,0,1.8,0,2.5-0.1c0.7-0.1,1.2-0.3,1.7-0.7
		c0.4-0.4,0.7-0.8,0.9-1.5c0.2-0.6,0.3-1.4,0.3-2.3v-0.5H78.2z"/>
</g>
</svg>
